<svg xmlns="http://www.w3.org/2000/svg" viewBox="0 0 220 187" role="img" aria-label="HAPPYTREE logo">
  <defs>
    <linearGradient id="shield" x1="44" y1="27" x2="176" y2="165" gradientUnits="userSpaceOnUse">
      <stop stop-color="#102d5c"/>
      <stop offset="1" stop-color="#0a254d"/>
    </linearGradient>
    <style>
      .leaf { fill: #b3912e; }
      .stem { fill: none; stroke: #b3912e; stroke-width: 5; stroke-linecap: round; }
    </style>
  </defs>
  <path class="stem" d="M53 46C20 72 18 125 57 154"/>
  <path class="stem" d="M167 46c33 26 35 79-4 108"/>
  <g class="leaf">
    <ellipse cx="46" cy="51" rx="5" ry="16" transform="rotate(34 46 51)"/>
    <ellipse cx="34" cy="67" rx="5" ry="15" transform="rotate(18 34 67)"/>
    <ellipse cx="27" cy="86" rx="5" ry="15" transform="rotate(4 27 86)"/>
    <ellipse cx="28" cy="106" rx="5" ry="15" transform="rotate(-13 28 106)"/>
    <ellipse cx="36" cy="126" rx="5" ry="15" transform="rotate(-29 36 126)"/>
    <ellipse cx="49" cy="143" rx="5" ry="15" transform="rotate(-42 49 143)"/>
    <ellipse cx="174" cy="51" rx="5" ry="16" transform="rotate(-34 174 51)"/>
    <ellipse cx="186" cy="67" rx="5" ry="15" transform="rotate(-18 186 67)"/>
    <ellipse cx="193" cy="86" rx="5" ry="15" transform="rotate(-4 193 86)"/>
    <ellipse cx="192" cy="106" rx="5" ry="15" transform="rotate(13 192 106)"/>
    <ellipse cx="184" cy="126" rx="5" ry="15" transform="rotate(29 184 126)"/>
    <ellipse cx="171" cy="143" rx="5" ry="15" transform="rotate(42 171 143)"/>
  </g>
  <path d="M58 27h104v95c0 30-23 50-52 50s-52-20-52-50V27Z" fill="url(#shield)"/>
  <path d="M82 70h29v17h-6v15h30V87h-6V70h29v17h-7v45h7v17h-29v-17h6v-15h-30v15h6v17H82v-17h7V87h-7V70Z" fill="#fff"/>
</svg>
